<svg xmlns="http://www.w3.org/2000/svg" shape-rendering="geometricPrecision" text-rendering="geometricPrecision" image-rendering="optimizeQuality" fill-rule="evenodd" clip-rule="evenodd" viewBox="0 0 512 260.91"><path fill-rule="nonzero" d="M256.01 0c69.73 0 132.96 28.47 179.14 74.29C481.6 120.37 510.8 184.03 512 253.92c.06 3.79-2.96 6.91-6.74 6.96l-498.38.03A6.88 6.88 0 0 1 0 254.03l.04-.77c1.38-69.63 30.54-133.04 76.84-178.97C123.06 28.47 186.29 0 256.01 0zm136.84 146.78c5.17 8.27 9.4 17.02 12.47 26.11 2.97 8.74 4.85 17.8 5.46 27.04.23 3.71-2.59 6.91-6.3 7.14-96.11 3.18-197.64.03-294.37.03-3.72 0-6.75-3.03-6.75-6.75 0-.5.06-.97.15-1.44 1.19-8.23 3.23-16.31 6.02-24.16 2.92-8.22 6.68-16.22 11.14-23.88 14.21-24.36 32.94-43.16 54.12-56.39 24.68-15.43 52.73-23.3 80.88-23.66 28.13-.35 56.34 6.79 81.37 21.39 21.68 12.64 40.99 30.85 55.81 54.57zm-.28 30.41c-2.71-8.02-6.49-15.83-11.15-23.29-13.62-21.79-31.3-38.48-51.13-50.04-22.93-13.37-48.75-19.92-74.46-19.6-25.7.33-51.33 7.53-73.93 21.66-19.38 12.11-36.54 29.33-49.58 51.7-4.05 6.95-7.45 14.19-10.09 21.62-1.68 4.72-3.05 9.52-4.09 14.36h278.43c-.83-5.55-2.18-11.03-4-16.41zM225.85 15.66l4.52 28.18c1.39 8.74-11.89 10.84-13.28 2.11l-4.53-28.22c-8.32 1.54-16.49 3.51-24.49 5.88l8.91 27.24c2.74 8.42-10.07 12.58-12.81 4.16l-8.9-27.2c-7.94 2.86-15.69 6.12-23.22 9.77l.04.07 12.97 25.34c4.02 7.87-7.95 13.98-11.97 6.11l-12.97-25.33c-7.38 4.09-14.52 8.56-21.41 13.38.23.23.45.49.65.76l16.09 22.06c5.2 7.14-5.65 15.05-10.86 7.91L108.5 65.82c-.18-.24-.33-.5-.47-.76-6.62 5.2-12.98 10.72-19.03 16.56.17.14.33.28.48.43l19.38 19.31c6.28 6.24-3.21 15.78-9.49 9.54L79.99 91.59c-.13-.13-.25-.27-.38-.41a246.712 246.712 0 0 0-16.12 19.21l22.47 16.27c7.18 5.21-.73 16.11-7.9 10.91l-22.41-16.22c-4.65 6.91-8.97 14.06-12.92 21.43l24.53 12.45c7.9 3.98 1.85 16-6.06 12.01l-24.5-12.43c-3.52 7.53-6.67 15.26-9.42 23.17l.12.03 25.88 8.36c8.42 2.7 4.32 15.51-4.1 12.81l-25.89-8.36-.08-.03a243.11 243.11 0 0 0-5.67 24.34l26.81 4.2c8.72 1.34 6.69 14.62-2.06 13.28l-26.75-4.2c-.76 6.18-1.3 12.43-1.59 18.74h484.12c-.28-6.25-.8-12.43-1.55-18.56l-22.47 3.57c-8.74 1.39-10.85-11.89-2.11-13.28l22.58-3.59a245.18 245.18 0 0 0-5.47-23.68l-21.95 7.14c-8.43 2.74-12.59-10.06-4.17-12.8l22.09-7.19c-2.66-7.71-5.69-15.25-9.07-22.6L455 166.84c-7.9 4.02-14.02-8-6.11-12.02l21.09-10.75a246.89 246.89 0 0 0-12.47-21l-19.45 14.13c-7.17 5.2-15.08-5.7-7.91-10.91l19.62-14.25c-4.89-6.57-10.1-12.9-15.6-18.94l-17.46 17.46c-6.23 6.27-15.77-3.22-9.53-9.49l17.66-17.68c-5.86-5.77-12-11.24-18.41-16.4l-14.98 20.63c-5.2 7.17-16.11-.74-10.91-7.91l15.16-20.87a241.45 241.45 0 0 0-20.84-13.41L362.91 68.9c-4.02 7.9-16.03 1.79-12.01-6.12l12.08-23.72c-7.4-3.71-15.01-7.05-22.81-9.99l-8.39 25.8c-2.73 8.42-15.54 4.26-12.8-4.16l8.45-26.04c-7.91-2.48-16-4.56-24.24-6.22l-4.34 27.43c-1.39 8.73-14.67 6.63-13.28-2.11l4.37-27.6c-8.22-1.18-16.56-1.93-25.02-2.25l.02.54v27.69c0 8.87-13.49 8.87-13.49 0V14.46c0-.22.01-.44.03-.65-8.66.16-17.21.78-25.63 1.85z"/></svg>